<svg xmlns="http://www.w3.org/2000/svg" xmlns:svg="http://www.w3.org/2000/svg" xmlns:xlink="http://www.w3.org/1999/xlink" id="svg5157" width="128" height="128" version="1.1"><defs id="defs5159"><linearGradient id="linearGradient3820-7-2-8-6"><stop style="stop-color:#3d3d3d;stop-opacity:1" id="stop3822-2-6-5-0" offset="0"/><stop style="stop-color:#686868;stop-opacity:.49803922" id="stop3864-8-7-4-1" offset=".5"/><stop style="stop-color:#686868;stop-opacity:0" id="stop3824-1-2-6-7" offset="1"/></linearGradient><linearGradient id="linearGradient4806"><stop id="stop4808" offset="0" style="stop-color:#fff;stop-opacity:1"/><stop id="stop4810" offset=".424" style="stop-color:#fff;stop-opacity:.23529412"/><stop id="stop4812" offset=".821" style="stop-color:#fff;stop-opacity:.15686275"/><stop id="stop4814" offset="1" style="stop-color:#fff;stop-opacity:.39215687"/></linearGradient><linearGradient id="linearGradient3118" x1="71.204" x2="71.204" y1="15.369" y2="40.496" gradientTransform="matrix(4.16388,0,0,4.16388,-236.03265,-50.036246)" gradientUnits="userSpaceOnUse" xlink:href="#linearGradient4806"/><radialGradient id="radialGradient3163" cx="99.157" cy="186.171" r="62.769" fx="99.157" fy="186.171" gradientTransform="matrix(0.6869404,0,0,0.21461693,-4.02174,68.573331)" gradientUnits="userSpaceOnUse" xlink:href="#linearGradient3820-7-2-8-6"/><radialGradient id="radialGradient3093-0-3-6" cx="23.896" cy="3.99" r="20.397" gradientTransform="matrix(0,1.2316483,-1.625754,0,18.486966,-28.721977)" gradientUnits="userSpaceOnUse"><stop id="stop3244-9-33-7-0" offset="0" style="stop-color:#fff;stop-opacity:1"/><stop id="stop3246-3-5-0-8" offset=".262" style="stop-color:#ddd;stop-opacity:1"/><stop id="stop3248-1-7-8-8" offset=".661" style="stop-color:#abacae;stop-opacity:1"/><stop id="stop3250-9-3-0-5" offset="1" style="stop-color:#89898b;stop-opacity:1"/></radialGradient><linearGradient id="linearGradient4164"><stop id="stop4166" offset="0" style="stop-color:#b6b6b6;stop-opacity:1"/><stop id="stop4216" offset=".331" style="stop-color:#a4a4a4;stop-opacity:1"/><stop id="stop4168" offset="1" style="stop-color:#c5c5c5;stop-opacity:1"/></linearGradient><linearGradient id="linearGradient4220-7"><stop id="stop4222-7" offset="0" style="stop-color:#7a8498;stop-opacity:1"/><stop id="stop4224-0" offset="1" style="stop-color:#34405c;stop-opacity:1"/></linearGradient><linearGradient id="linearGradient4316-5"><stop id="stop4318-1" offset="0" style="stop-color:#fff;stop-opacity:1"/><stop id="stop4320-9" offset=".338" style="stop-color:#fff;stop-opacity:.23529412"/><stop id="stop4322-42" offset=".62" style="stop-color:#fff;stop-opacity:.15686275"/><stop id="stop4324-9" offset="1" style="stop-color:#fff;stop-opacity:.39215687"/></linearGradient><linearGradient id="linearGradient4507-6"><stop id="stop4509-3" offset="0" style="stop-color:#2d3955;stop-opacity:1"/><stop id="stop5959-4" offset=".725" style="stop-color:#2b3853;stop-opacity:1"/><stop id="stop5961-1" offset=".75" style="stop-color:#192640;stop-opacity:1"/><stop id="stop4511-1" offset="1" style="stop-color:#08142e;stop-opacity:1"/></linearGradient><linearGradient id="linearGradient6042-1"><stop id="stop6044-9" offset="0" style="stop-color:#07132d;stop-opacity:1"/><stop id="stop6046-9" offset="1" style="stop-color:#425479;stop-opacity:1"/></linearGradient><linearGradient id="linearGradient3087-408-5" x1="7.078" x2="7.078" y1="3.082" y2="45.369" gradientTransform="matrix(0.22110724,0,0,0.22110728,6.6934256,6.693263)" gradientUnits="userSpaceOnUse"><stop id="stop7201-5" offset="0" style="stop-color:#170418;stop-opacity:1"/><stop id="stop7203-2" offset="1" style="stop-color:#50386b;stop-opacity:1"/></linearGradient><linearGradient id="linearGradient2867-449-88-871-390-598-476-591-434-148-57-177-691-4"><stop id="stop7191-4" offset="0" style="stop-color:#612f91;stop-opacity:1"/><stop id="stop7197-2" offset="1" style="stop-color:#1a4aa2;stop-opacity:1"/></linearGradient><linearGradient id="linearGradient4278-3"><stop id="stop4280-6" offset="0" style="stop-color:#000;stop-opacity:0"/><stop id="stop4286-1" offset=".5" style="stop-color:#000;stop-opacity:0"/><stop id="stop4282-24" offset="1" style="stop-color:#000;stop-opacity:1"/></linearGradient><linearGradient id="linearGradient4316-4-0"><stop id="stop4318-4-5" offset="0" style="stop-color:#fff;stop-opacity:1"/><stop id="stop4320-2-9" offset=".338" style="stop-color:#fff;stop-opacity:.23529412"/><stop id="stop4322-4-1" offset=".62" style="stop-color:#fff;stop-opacity:.15686275"/><stop id="stop4324-4-8" offset="1" style="stop-color:#fff;stop-opacity:.39215687"/></linearGradient><linearGradient id="linearGradient6088-74"><stop id="stop6090-5" offset="0" style="stop-color:#ff54d2;stop-opacity:0"/><stop id="stop6257-5" offset=".324" style="stop-color:#f62b68;stop-opacity:1"/><stop id="stop6255-6" offset=".561" style="stop-color:#ff0105;stop-opacity:1"/><stop id="stop6092-0" offset="1" style="stop-color:#ff54d2;stop-opacity:.47826087"/></linearGradient><linearGradient id="linearGradient4316-4-6-6"><stop id="stop4318-4-4-6" offset="0" style="stop-color:#fff;stop-opacity:1"/><stop id="stop4320-2-2-6" offset=".338" style="stop-color:#fff;stop-opacity:.23529412"/><stop id="stop4322-4-5-5" offset=".62" style="stop-color:#fff;stop-opacity:.15686275"/><stop id="stop4324-4-1-5" offset="1" style="stop-color:#fff;stop-opacity:.39215687"/></linearGradient><linearGradient id="linearGradient3990-3-1"><stop id="stop3992-0-0" offset="0" style="stop-color:#fff;stop-opacity:1"/><stop id="stop3994-2-1" offset="1" style="stop-color:#fff;stop-opacity:0"/></linearGradient><linearGradient id="linearGradient6191-9"><stop id="stop6193-8" offset="0" style="stop-color:#fff;stop-opacity:0"/><stop id="stop6197-8" offset=".405" style="stop-color:#fff;stop-opacity:0"/><stop id="stop6195-9" offset="1" style="stop-color:#fff;stop-opacity:.47826087"/></linearGradient><linearGradient id="linearGradient6191-7-9"><stop id="stop6193-7-3" offset="0" style="stop-color:#fff;stop-opacity:0"/><stop id="stop6197-2-2" offset=".405" style="stop-color:#fff;stop-opacity:0"/><stop id="stop6195-2-1" offset="1" style="stop-color:#fff;stop-opacity:.47826087"/></linearGradient><linearGradient id="linearGradient6191-8-3"><stop id="stop6193-75-7" offset="0" style="stop-color:#fff;stop-opacity:0"/><stop id="stop6197-3-4" offset=".405" style="stop-color:#fff;stop-opacity:0"/><stop id="stop6195-7-2" offset="1" style="stop-color:#fff;stop-opacity:.47826087"/></linearGradient><linearGradient id="linearGradient6088-6-1"><stop id="stop6090-2-0" offset="0" style="stop-color:#ff54d2;stop-opacity:0"/><stop id="stop6257-4-6" offset=".324" style="stop-color:#ff54d2;stop-opacity:0"/><stop id="stop6255-3-6" offset=".561" style="stop-color:#ff54d2;stop-opacity:.2521739"/><stop id="stop6092-9-6" offset="1" style="stop-color:#ff54d2;stop-opacity:.47826087"/></linearGradient><linearGradient id="linearGradient6303-4"><stop id="stop6305-33" offset="0" style="stop-color:#fff;stop-opacity:1"/><stop id="stop6307-9" offset="1" style="stop-color:#fff;stop-opacity:0"/></linearGradient><linearGradient id="linearGradient6303-3-2"><stop id="stop6305-3-0" offset="0" style="stop-color:#fff;stop-opacity:1"/><stop id="stop6307-1-0" offset="1" style="stop-color:#fff;stop-opacity:0"/></linearGradient><linearGradient id="linearGradient6303-33-0"><stop id="stop6305-1-0" offset="0" style="stop-color:#fff;stop-opacity:1"/><stop id="stop6307-5-0" offset="1" style="stop-color:#fff;stop-opacity:0"/></linearGradient><linearGradient id="linearGradient6413-0"><stop id="stop6415-1" offset="0" style="stop-color:#feffff;stop-opacity:1"/><stop id="stop6417-4" offset="1" style="stop-color:#fe70ca;stop-opacity:1"/></linearGradient><linearGradient id="linearGradient6455-7"><stop id="stop6457-5" offset="0" style="stop-color:#fbac9b;stop-opacity:1"/><stop id="stop6459-8" offset="1" style="stop-color:#fcfafc;stop-opacity:1"/></linearGradient><linearGradient id="linearGradient4264" x1="38.851" x2="34.131" y1="41.608" y2="37.81" gradientTransform="matrix(0.67049974,0,0,0.70142164,32.619148,33.487568)" gradientUnits="userSpaceOnUse" xlink:href="#linearGradient6455-7"/><linearGradient id="linearGradient4267" x1="38.851" x2="34.131" y1="41.608" y2="37.81" gradientTransform="matrix(0.95870949,0,0,1.002923,20.382359,19.716255)" gradientUnits="userSpaceOnUse" xlink:href="#linearGradient6413-0"/><radialGradient id="radialGradient4270" cx="36.491" cy="39.709" r="3.159" fx="36.491" fy="39.709" gradientTransform="matrix(0.95870949,0,0,1.002923,28.425027,24.584185)" gradientUnits="userSpaceOnUse" xlink:href="#linearGradient6303-33-0"/><radialGradient id="radialGradient4273" cx="36.491" cy="39.709" r="3.159" fx="36.491" fy="39.709" gradientTransform="matrix(3.3608273,-1.9403746,1.1040062,1.9121948,-113.64762,47.868587)" gradientUnits="userSpaceOnUse" xlink:href="#linearGradient6303-3-2"/><radialGradient id="radialGradient4276" cx="36.491" cy="39.709" r="3.159" fx="36.491" fy="39.709" gradientTransform="matrix(4.1765343,-2.4113233,1.3719597,2.3763042,-133.31673,71.586006)" gradientUnits="userSpaceOnUse" xlink:href="#linearGradient6303-4"/><radialGradient id="radialGradient4279" cx="32.373" cy="31.405" r="3.857" fx="32.373" fy="31.405" gradientTransform="matrix(-2.6709233,-2.6709233,2.6709233,-2.6709233,67.08414,232.84293)" gradientUnits="userSpaceOnUse" xlink:href="#linearGradient6088-6-1"/><radialGradient id="radialGradient4282" cx="32.373" cy="31.405" r="3.857" fx="32.373" fy="31.405" gradientTransform="matrix(2.2864971,3.1750658,-3.065167,2.2073543,86.739454,-106.13379)" gradientUnits="userSpaceOnUse" xlink:href="#linearGradient6191-8-3"/><radialGradient id="radialGradient4285" cx="32.373" cy="31.405" r="3.857" fx="32.373" fy="31.405" gradientTransform="matrix(0,3.912686,-3.7772559,-2.2076244e-8,183.13744,-60.687139)" gradientUnits="userSpaceOnUse" xlink:href="#linearGradient6191-7-9"/><radialGradient id="radialGradient4288" cx="32.373" cy="31.405" r="3.857" fx="32.373" fy="31.405" gradientTransform="matrix(3.7793643,1.0126777,-0.97762579,3.6485491,-27.16302,-81.385341)" gradientUnits="userSpaceOnUse" xlink:href="#linearGradient6191-9"/><linearGradient id="linearGradient4291" x1="68.313" x2="68.313" y1="52.925" y2="65.922" gradientTransform="matrix(0.29228332,0,0,0.21921248,44.942037,49.387547)" gradientUnits="userSpaceOnUse" xlink:href="#linearGradient3990-3-1"/><linearGradient id="linearGradient4294" x1="92.696" x2="92.696" y1="16.555" y2="48.984" gradientTransform="matrix(0.84224594,0,0,0.84224594,-13.058819,38.565024)" gradientUnits="userSpaceOnUse" xlink:href="#linearGradient4316-4-6-6"/><radialGradient id="radialGradient4297" cx="32.373" cy="31.405" r="3.857" fx="32.373" fy="31.405" gradientTransform="matrix(-3.7772559,0,0,-3.7772559,186.79715,184.64083)" gradientUnits="userSpaceOnUse" xlink:href="#linearGradient6088-74"/><linearGradient id="linearGradient4302" x1="92.696" x2="92.696" y1="16.555" y2="48.984" gradientTransform="matrix(1.5285204,0,0,-1.5285204,-76.254899,115.78428)" gradientUnits="userSpaceOnUse" xlink:href="#linearGradient4316-4-0"/><radialGradient id="radialGradient4305" cx="95.838" cy="95.388" r="9.498" fx="95.838" fy="95.388" gradientTransform="matrix(0.945105,-1.4092773e-7,1.3241225e-7,0.88799761,-26.223878,-19.054862)" gradientUnits="userSpaceOnUse" xlink:href="#linearGradient4278-3"/><radialGradient id="radialGradient4308" cx="23.896" cy="3.99" r="20.397" gradientTransform="matrix(0,0.87964964,-1.1611221,0,69.132876,36.914093)" gradientUnits="userSpaceOnUse" xlink:href="#linearGradient2867-449-88-871-390-598-476-591-434-148-57-177-691-4"/><linearGradient id="linearGradient4310" x1="7.078" x2="7.078" y1="3.082" y2="45.369" gradientTransform="matrix(0.36856973,0,0,0.36856978,55.654327,57.152236)" gradientUnits="userSpaceOnUse" xlink:href="#linearGradient3087-408-5"/><radialGradient id="radialGradient4315" cx="32" cy="21.239" r="10.498" fx="32" fy="21.239" gradientTransform="matrix(0,3.5457346,-8.1677749,0,237.97762,-66.433385)" gradientUnits="userSpaceOnUse" xlink:href="#linearGradient6042-1"/><radialGradient id="radialGradient4318" cx="91.35" cy="16.448" r="15.639" fx="91.35" fy="16.448" gradientTransform="matrix(0,3.2290608,-3.2290608,0,117.6108,-253.82214)" gradientUnits="userSpaceOnUse" xlink:href="#linearGradient4507-6"/><linearGradient id="linearGradient4321" x1="92.696" x2="92.696" y1="16.555" y2="48.984" gradientTransform="matrix(1.9652404,0,0,1.9652404,-116.47058,2.0000407)" gradientUnits="userSpaceOnUse" xlink:href="#linearGradient4316-5"/><linearGradient id="linearGradient4325" x1="91.566" x2="91.566" y1="16.543" y2="48.631" gradientTransform="matrix(2.0276289,0,0,2.0276289,-122.21566,-0.03889476)" gradientUnits="userSpaceOnUse" xlink:href="#linearGradient4220-7"/><linearGradient id="linearGradient4329" x1="51.2" x2="51.2" y1="8.114" y2="56.115" gradientTransform="matrix(1.6892667,0,0,1.6892667,-22.18352,11.941653)" gradientUnits="userSpaceOnUse" xlink:href="#linearGradient4164"/><radialGradient id="radialGradient4332" cx="23.896" cy="3.99" r="20.397" fx="23.896" fy="3.99" gradientTransform="matrix(0,7.3269875,-9.6714935,0,103.09023,-162.1666)" gradientUnits="userSpaceOnUse" xlink:href="#radialGradient3093-0-3-6"/></defs><metadata id="metadata5162"/><path id="path3818-0-5-0" d="m 107.21186,108.52868 a 43.118644,13.471312 0 1 1 -86.237286,0 43.118644,13.471312 0 1 1 86.237286,0 z" style="fill:url(#radialGradient3163);fill-opacity:1;stroke:none"/><path style="color:#000;fill:url(#radialGradient4332);fill-opacity:1;fill-rule:nonzero;stroke:none;stroke-width:.99999994;marker:none;visibility:visible;display:inline;overflow:visible;enable-background:accumulate" id="path2555-7" d="m 64.499999,13.998148 c -28.691826,0 -52.000036,23.308205 -52.000036,52.000033 0,28.691827 23.30821,52.000049 52.000036,52.000029 28.691822,0 52.000051,-23.308202 52.000041,-52.000029 0,-28.691828 -23.308219,-52.000033 -52.000041,-52.000033 z"/><path style="color:#000;fill:url(#linearGradient4329);fill-opacity:1;fill-rule:nonzero;stroke:none;stroke-width:.99999994;marker:none;visibility:visible;display:inline;overflow:visible;enable-background:accumulate" id="path2555-36-4" d="m 64.499999,25.455788 c -22.370923,0 -40.542403,18.173408 -40.542403,40.5424 0,22.3709 18.173406,40.542402 40.542403,40.542402 22.370898,0 40.542401,-18.173411 40.542401,-40.542402 0,-22.37092 -18.173411,-40.5424 -40.542401,-40.5424 z"/><path style="opacity:.05;color:#000;fill:none;stroke:#000;stroke-width:.99999994;stroke-opacity:1;marker:none;visibility:visible;display:inline;overflow:visible;enable-background:accumulate" id="path2555-36-4-2" d="M 64.500005,26 C 42.428371,26 24.499999,44.154403 24.499999,66.499998 24.499999,88.847505 42.430272,107 64.500005,107 86.571614,107 104.5,88.8456 104.5,66.499998 104.5,44.152479 86.569733,26 64.500006,26 z"/><path style="color:#000;fill:url(#linearGradient4325);fill-opacity:1;fill-rule:nonzero;stroke:none;stroke-width:.79069769;marker:none;visibility:visible;display:inline;overflow:visible;enable-background:accumulate" id="path4218" d="m 97,66.003881 a 32.5,32.5 0 0 1 -64.999999,0 32.5,32.5 0 1 1 64.999999,0 z"/><path style="opacity:.3;color:#000;fill:none;stroke:#000;stroke-width:1.00000012;stroke-linecap:butt;stroke-linejoin:miter;stroke-miterlimit:4;stroke-opacity:1;stroke-dasharray:none;stroke-dashoffset:0;marker:none;visibility:visible;display:inline;overflow:visible;enable-background:accumulate" id="path4218-4" d="m 96.999999,66.00388 a 32.5,32.5 0 0 1 -64.999999,0 32.5,32.5 0 1 1 64.999999,0 z"/><path style="opacity:.3;color:#000;fill:none;stroke:url(#linearGradient4321);stroke-width:1.00000012;stroke-linecap:butt;stroke-linejoin:miter;stroke-miterlimit:4;stroke-opacity:1;stroke-dasharray:none;stroke-dashoffset:0;marker:none;visibility:visible;display:inline;overflow:visible;enable-background:accumulate" id="path4218-4-9" d="m 95.999998,66.01073 a 31.5,31.5 0 0 1 -62.999995,0 31.5,31.5 0 1 1 62.999995,0 z"/><path style="color:#000;fill:url(#radialGradient4318);fill-opacity:1;stroke:none;stroke-width:1.15846562;marker:none;visibility:visible;display:inline;overflow:visible;enable-background:accumulate" id="path4326-5-7" d="m 89.999997,65.99818 a 25.5,25.5 0 1 1 -50.999994,0 25.5,25.5 0 1 1 50.999994,0 z"/><path style="fill:url(#radialGradient4315);fill-opacity:1;stroke:none" id="path2555-3-5-2" d="m 64.499997,47.492921 c -10.210353,0 -18.505266,8.294497 -18.505266,18.505265 0,10.210342 8.294913,18.505264 18.505266,18.505264 10.21034,0 18.505261,-8.294499 18.505261,-18.505264 0,-10.210353 -8.294499,-18.505265 -18.505261,-18.505265 z"/><path style="opacity:.3;fill:none;stroke:#000;stroke-width:1.00365412;stroke-linecap:round;stroke-linejoin:round;stroke-miterlimit:4;stroke-opacity:1;stroke-dasharray:none;stroke-dashoffset:0" id="path2555-3-5" d="m 64.499994,47.492925 c -10.210356,0 -18.505269,8.294498 -18.505269,18.505266 0,10.210343 8.294913,18.505266 18.505269,18.505266 10.210339,0 18.505262,-8.2945 18.505262,-18.505266 0,-10.210353 -8.2945,-18.505266 -18.505262,-18.505266 z"/><path style="fill:#2f3b55;fill-opacity:1;stroke:none" id="path2555-3-5-3-3" d="m 64.5,51.498178 c -8.000433,0 -14.5,6.499244 -14.5,14.500002 0,8.000424 6.499567,14.500001 14.5,14.500001 8.000422,0 14.5,-6.499245 14.5,-14.500001 0,-8.000434 -6.499246,-14.500002 -14.5,-14.500002 z"/><path style="fill:url(#radialGradient4308);fill-opacity:1;stroke:url(#linearGradient4310);stroke-width:1.00365412;stroke-linecap:round;stroke-linejoin:round;stroke-miterlimit:4;stroke-dasharray:none;stroke-dashoffset:0" id="path2555-3" d="m 64.499999,58.500007 c -4.137147,0 -7.498173,3.360857 -7.498173,7.498172 0,4.137143 3.361026,7.498171 7.498173,7.498171 4.137145,0 7.498173,-3.360854 7.498173,-7.498171 0,-4.137147 -3.360862,-7.498172 -7.498173,-7.498172 z"/><path style="opacity:.5;fill:url(#radialGradient4305);fill-opacity:1;stroke:none" id="path2555-3-3" d="m 64.499998,58.998181 c -3.862277,0 -6.999999,3.137566 -6.999999,6.999998 0,3.862272 3.137722,6.999999 6.999999,6.999999 3.862274,0 7.000001,-3.137561 7.000001,-6.999999 0,-3.862277 -3.13757,-6.999998 -7.000001,-6.999998 z"/><path style="opacity:.3;color:#000;fill:none;stroke:url(#linearGradient4302);stroke-width:1.00000012;stroke-linecap:butt;stroke-linejoin:miter;stroke-miterlimit:4;stroke-opacity:1;stroke-dasharray:none;stroke-dashoffset:0;marker:none;visibility:visible;display:inline;overflow:visible;enable-background:accumulate" id="path4218-4-9-8" d="m 89,65.998179 a 24.5,24.5 0 1 0 -49,0 24.5,24.5 0 0 0 49,0 z"/><path style="opacity:.3;color:#000;fill:none;stroke:#000;stroke-width:.99999994;stroke-linecap:butt;stroke-linejoin:miter;stroke-miterlimit:4;stroke-opacity:1;stroke-dasharray:none;stroke-dashoffset:0;marker:none;visibility:visible;display:inline;overflow:visible;enable-background:accumulate" id="path4326-5" d="m 89.999995,65.998179 a 25.5,25.500001 0 1 1 -50.999992,0 25.5,25.500001 0 1 1 50.999992,0 z"/><path style="opacity:.3;fill:none;stroke:#000;stroke-width:1.00365412;stroke-linecap:round;stroke-linejoin:round;stroke-miterlimit:4;stroke-opacity:1;stroke-dasharray:none;stroke-dashoffset:0" id="path2555-3-5-3" d="m 64.500001,51.500004 c -7.999425,0 -14.498175,6.498426 -14.498175,14.498176 0,7.999416 6.49875,14.498174 14.498175,14.498174 7.999413,0 14.498171,-6.498426 14.498171,-14.498174 0,-7.999426 -6.498426,-14.498176 -14.498171,-14.498176 z"/><path style="opacity:.4;color:#000;fill:url(#radialGradient4297);fill-opacity:1;fill-rule:nonzero;stroke:none;stroke-width:1;marker:none;visibility:visible;display:inline;overflow:visible;enable-background:accumulate" id="path6086" d="M 50.656968,63.309581 A 14.101706,14.101706 0 0 1 60.850204,52.377003 l 3.649791,13.621202 z"/><path style="opacity:.3;color:#000;fill:none;stroke:url(#linearGradient4294);stroke-width:1.00000024;stroke-linecap:butt;stroke-linejoin:miter;stroke-miterlimit:4;stroke-opacity:1;stroke-dasharray:none;stroke-dashoffset:0;marker:none;visibility:visible;display:inline;overflow:visible;enable-background:accumulate" id="path4218-4-9-8-2" d="m 78,65.998179 a 13.5,13.5 0 0 1 -27.000001,0 13.5,13.5 0 1 1 27.000001,0 z"/><path style="opacity:.5;color:#000;fill:url(#linearGradient4291);fill-opacity:1;stroke:none;stroke-width:1;marker:none;visibility:visible;display:inline;overflow:visible;enable-background:accumulate" id="path3220" d="m 67.839161,63.493812 a 3.339164,2.5043728 0 0 1 -6.678328,0 3.339164,2.5043728 0 1 1 6.678328,0 z"/><path style="opacity:.4;color:#000;fill:url(#radialGradient4288);fill-opacity:1;fill-rule:nonzero;stroke:none;stroke-width:1;marker:none;visibility:visible;display:inline;overflow:visible;enable-background:accumulate" id="path6086-1" d="m 78.601699,65.998209 a 14.101706,14.101706 0 0 1 -0.890387,4.931445 l -13.21132,-4.931445 z"/><path style="opacity:.4;color:#000;fill:url(#radialGradient4285);fill-opacity:1;fill-rule:nonzero;stroke:none;stroke-width:1;marker:none;visibility:visible;display:inline;overflow:visible;enable-background:accumulate" id="path6086-1-5" d="m 65.767529,80.042833 a 14.101706,14.101706 0 0 1 -4.507814,-0.320242 l 3.24028,-13.724382 z"/><path style="opacity:.4;color:#000;fill:url(#radialGradient4282);fill-opacity:1;fill-rule:nonzero;stroke:none;stroke-width:1;marker:none;visibility:visible;display:inline;overflow:visible;enable-background:accumulate" id="path6086-1-50" d="m 76.476869,73.442175 a 14.101705,14.101705 0 0 1 -6.586037,5.586648 L 64.499995,65.998209 z"/><path style="opacity:.5;color:#000;fill:url(#radialGradient4279);fill-opacity:1;fill-rule:nonzero;stroke:none;stroke-width:1;marker:none;visibility:visible;display:inline;overflow:visible;enable-background:accumulate" id="path6086-3" d="m 54.528583,52.501373 a 14.101706,14.101706 0 0 1 19.942823,0 l -9.971411,9.971413 z"/><path style="opacity:.2;color:#000;fill:url(#radialGradient4276);fill-opacity:1;fill-rule:nonzero;stroke:none;stroke-width:1;marker:none;visibility:visible;display:inline;overflow:visible;enable-background:accumulate" id="path6301" d="M 86.761898,70.337531 A 8.6678464,15.234395 59.999998 1 1 60.375152,85.571926 8.6678464,15.234395 59.999998 1 1 86.761898,70.337531 z"/><path style="opacity:.4;color:#000;fill:url(#radialGradient4273);fill-opacity:1;fill-rule:nonzero;stroke:none;stroke-width:1;marker:none;visibility:visible;display:inline;overflow:visible;enable-background:accumulate" id="path6301-5" d="M 63.448084,46.863942 A 6.9749537,12.25901 59.999999 1 1 42.214857,59.122951 6.9749537,12.25901 59.999999 0 1 63.448084,46.863942 z"/><path style="opacity:.8;color:#000;fill:url(#radialGradient4270);fill-opacity:1;fill-rule:nonzero;stroke:none;stroke-width:1;marker:none;visibility:visible;display:inline;overflow:visible;enable-background:accumulate" id="path6301-1" d="m 66.437857,64.40918 a 3.0284947,3.1681621 0 1 1 -6.056989,0 3.0284947,3.1681621 0 1 1 6.056989,0 z"/><path style="opacity:.4;color:#000;fill:url(#linearGradient4267);fill-opacity:1;fill-rule:nonzero;stroke:none;stroke-width:1;marker:none;visibility:visible;display:inline;overflow:visible;enable-background:accumulate" id="path6301-1-8" d="m 58.39519,59.541251 a 3.028495,3.1681624 0 0 1 -6.05699,0 3.028495,3.1681624 0 1 1 6.05699,0 z"/><path style="opacity:.4;color:#000;fill:url(#linearGradient4264);fill-opacity:1;fill-rule:nonzero;stroke:none;stroke-width:1;marker:none;visibility:visible;display:inline;overflow:visible;enable-background:accumulate" id="path6301-1-8-2" d="m 59.204462,61.34027 a 2.1180609,2.2157409 0 1 1 -4.236121,0 2.1180609,2.2157409 0 1 1 4.236121,0 z"/><path id="path2555-7-1" d="m 64.5,13.998179 c -28.691806,0 -52.000001,23.308189 -52.000001,51.999997 0,28.691808 23.308195,52.000014 52.000001,52.000004 28.691802,0 52.00002,-23.308196 52,-52.000004 0,-28.691808 -23.308198,-51.999997 -52,-51.999997 z" style="opacity:.29999999999999999;color:#000;fill:none;fill-opacity:0;fill-rule:nonzero;stroke:#000;stroke-width:1;stroke-linecap:round;stroke-linejoin:round;stroke-miterlimit:4;stroke-opacity:1;stroke-dasharray:none;stroke-dashoffset:0;marker:none;visibility:visible;display:inline;overflow:visible;enable-background:accumulate"/><path id="path3019" d="m 115.5,65.998181 c 0,28.166516 -22.833502,50.999989 -51.000026,50.999989 -28.166487,0 -50.999973,-22.833473 -50.999973,-50.999989 0,-28.166517 22.833486,-50.999991 50.999973,-50.999991 28.166524,0 51.000026,22.833474 51.000026,50.999991 z" style="opacity:.8;color:#000;fill:none;stroke:url(#linearGradient3118);stroke-width:1;stroke-linecap:round;stroke-linejoin:round;stroke-miterlimit:4;stroke-opacity:1;stroke-dasharray:none;stroke-dashoffset:0;marker:none;visibility:visible;display:inline;overflow:visible;enable-background:accumulate"/></svg>